<?xml version="1.0" encoding="utf-8"?>
<!DOCTYPE svg PUBLIC "-//W3C//DTD SVG 1.1//EN" "http://www.w3.org/Graphics/SVG/1.1/DTD/svg11.dtd">
<svg xmlns="http://www.w3.org/2000/svg" xmlns:xlink="http://www.w3.org/1999/xlink" version="1.1" baseProfile="full" width="24" height="24" viewBox="0 0 24.00 24.00" enable-background="new 0 0 24.00 24.00" xml:space="preserve">
	<path fill="#000000" fill-opacity="1" stroke-width="1.33333" stroke-linejoin="miter" d="M 3,4L 7,4L 7,8L 3,8L 3,4M 9,5L 9,7L 21,7L 21,5L 9,5M 3,10L 7,10L 7,14L 3,14L 3,10M 9,11L 9,13L 21,13L 21,11L 9,11M 3,16L 7,16L 7,20L 3,20L 3,16M 9,17L 9,19L 21,19L 21,17L 9,17"/>
</svg>
