<?xml version="1.0" encoding="UTF-8" standalone="no"?>
<svg
   xmlns:dc="http://purl.org/dc/elements/1.1/"
   xmlns:cc="http://creativecommons.org/ns#"
   xmlns:rdf="http://www.w3.org/1999/02/22-rdf-syntax-ns#"
   xmlns:svg="http://www.w3.org/2000/svg"
   xmlns="http://www.w3.org/2000/svg"
   xmlns:sodipodi="http://sodipodi.sourceforge.net/DTD/sodipodi-0.dtd"
   xmlns:inkscape="http://www.inkscape.org/namespaces/inkscape"
   version="1.1"
   width="24"
   height="24"
   viewBox="0 0 24.00 24.00"
   enable-background="new 0 0 24.00 24.00"
   xml:space="preserve"
   id="svg4"
   sodipodi:docname="ipv4.svg"
   inkscape:version="0.92.3 (2405546, 2018-03-11)"><metadata
   id="metadata10"><rdf:RDF><cc:Work
       rdf:about=""><dc:format>image/svg+xml</dc:format><dc:type
         rdf:resource="http://purl.org/dc/dcmitype/StillImage" /><dc:title></dc:title></cc:Work></rdf:RDF></metadata><defs
   id="defs8" /><sodipodi:namedview
   pagecolor="#ffffff"
   bordercolor="#666666"
   borderopacity="1"
   objecttolerance="10"
   gridtolerance="10"
   guidetolerance="10"
   inkscape:pageopacity="0"
   inkscape:pageshadow="2"
   inkscape:window-width="1920"
   inkscape:window-height="1153"
   id="namedview6"
   showgrid="false"
   inkscape:zoom="24.25"
   inkscape:cx="21.32136"
   inkscape:cy="14.802996"
   inkscape:window-x="1920"
   inkscape:window-y="21"
   inkscape:window-maximized="1"
   inkscape:current-layer="svg4" />
	<path
   fill="#000000"
   fill-opacity="1"
   stroke-width="0.2"
   stroke-linejoin="miter"
   d="M 15,9L 13,9L 13,7L 15,7L 15,9 Z M 22,20L 22,22L 15,22C 15,22.5523 14.5523,23 14,23L 10,23C 9.44771,23 9,22.5523 9,22L 2,22L 2,20L 9,20C 9,19.4477 9.44771,19 10,19L 11,19L 11,17L 7,17C 5.89543,17 5,16.1046 5,15L 5,5C 5,3.8954 5.89543,3 7,3L 17,3C 18.1046,3 19,3.8954 19,5L 19,15C 19,16.1046 18.1046,17 17,17L 13,17L 13,19L 14,19C 14.5523,19 15,19.4477 15,20L 22,20 Z M 9,5L 7,5L 7,15L 9,15L 9,5 Z M 11,15L 13,15L 13,11L 15,11C 16.1046,11 17,10.1046 17,9L 17,7C 17,5.8954 16.1046,5 15,5L 11,5L 11,15 Z "
   id="path2" />
<text
   xml:space="preserve"
   style="font-style:normal;font-weight:normal;font-size:40px;line-height:1.25;font-family:sans-serif;letter-spacing:0px;word-spacing:0px;fill:#000000;fill-opacity:1;stroke:none"
   x="27.361437"
   y="15.083264"
   id="text837"><tspan
     sodipodi:role="line"
     id="tspan835"
     x="27.361437"
     y="50.473888" /></text>
<text
   xml:space="preserve"
   style="font-style:normal;font-weight:normal;font-size:40px;line-height:1.25;font-family:sans-serif;letter-spacing:0px;word-spacing:0px;fill:#000000;fill-opacity:1;stroke:none"
   x="28.440075"
   y="16.916946"
   id="text841"><tspan
     sodipodi:role="line"
     id="tspan839"
     x="28.440075"
     y="52.307571" /></text>
<text
   xml:space="preserve"
   style="font-style:normal;font-weight:normal;font-size:5.28798342px;line-height:1.25;font-family:sans-serif;letter-spacing:0px;word-spacing:0px;fill:#ffffff;fill-opacity:1;stroke:none;stroke-width:0.13219959"
   x="13.486515"
   y="16.940081"
   id="text845"
   transform="scale(1.0661662,0.93794006)"><tspan
     sodipodi:role="line"
     id="tspan843"
     x="13.486515"
     y="16.940081"
     style="fill:#ffffff;fill-opacity:1;stroke-width:0.13219959">4</tspan></text>
</svg>