<?xml version="1.0" encoding="UTF-8" standalone="no"?>
<svg
   xmlns:dc="http://purl.org/dc/elements/1.1/"
   xmlns:cc="http://creativecommons.org/ns#"
   xmlns:rdf="http://www.w3.org/1999/02/22-rdf-syntax-ns#"
   xmlns:svg="http://www.w3.org/2000/svg"
   xmlns="http://www.w3.org/2000/svg"
   xmlns:sodipodi="http://sodipodi.sourceforge.net/DTD/sodipodi-0.dtd"
   xmlns:inkscape="http://www.inkscape.org/namespaces/inkscape"
   version="1.1"
   width="24"
   height="24"
   viewBox="0 0 24.00 24.00"
   enable-background="new 0 0 24.00 24.00"
   xml:space="preserve"
   id="svg4"
   sodipodi:docname="netbsd.svg"
   inkscape:version="0.92.4 (5da689c313, 2019-01-14)"><metadata
   id="metadata10"><rdf:RDF><cc:Work
       rdf:about=""><dc:format>image/svg+xml</dc:format><dc:type
         rdf:resource="http://purl.org/dc/dcmitype/StillImage" /></cc:Work></rdf:RDF></metadata><defs
   id="defs8" /><sodipodi:namedview
   pagecolor="#ffffff"
   bordercolor="#666666"
   borderopacity="1"
   objecttolerance="10"
   gridtolerance="10"
   guidetolerance="10"
   inkscape:pageopacity="0"
   inkscape:pageshadow="2"
   inkscape:window-width="1920"
   inkscape:window-height="1031"
   id="namedview6"
   showgrid="false"
   inkscape:zoom="13.906434"
   inkscape:cx="12.408746"
   inkscape:cy="12.236929"
   inkscape:window-x="0"
   inkscape:window-y="0"
   inkscape:window-maximized="1"
   inkscape:current-layer="Spread" />
	
<g
   style="font-size:16px;font-family:'Times New Roman';fill:none;stroke:#000000"
   transform="matrix(0.03038306,0,0,-0.03038306,0.46059409,18.577878)"
   id="Spread"><g
     transform="matrix(1.0515875,0,0,-1.0515875,86.026161,654.20644)"
     id="layer1"
     style="fill:#000000"><g
       transform="matrix(3.5433071,0,0,3.5433071,-70.892703,-365.08493)"
       style="fill-rule:evenodd;fill:#000000"
       id="g2195"><path
         inkscape:connector-curvature="0"
         d="m 37.481557,153.14346 c -0.278518,4.8e-4 -0.618059,0.0799 -1.018518,0.30092 -1.331888,0.73885 -0.636573,2.10648 -0.636573,2.10648 l 25.034704,52.92821 h 6.064811 L 38.62739,153.8842 c 0,0 -0.310278,-0.74218 -1.145833,-0.74074 z m 45.115709,101.3078 19.016194,40.23147 c -1e-5,-4e-5 1.08194,2.12133 3.35647,2.30322 h 0.625 c 0.61195,-0.0461 1.29995,-0.22656 2.06019,-0.61341 4.11206,-2.09255 2.03808,-5.37036 2.03703,-5.37036 L 90.756982,254.45126 Z"
         style="fill:#000000"
         id="path10" /><path
         inkscape:connector-curvature="0"
         d="m 179.4878,150.25776 c -8.89606,-4.26968 -17.47466,-6.1748 -25.98857,-6.50931 h -5.61286 c -12.30301,0.46037 -24.58725,3.84501 -37.62071,7.7454 -24.177279,7.23149 -45.682909,11.1454 -69.841686,1.28845 2.632019,4.70262 3.949604,7.05367 6.582936,11.75275 2.417583,4.3227 4.838448,8.64488 7.25695,12.96574 2.632807,4.70183 3.949079,7.05091 6.582411,11.75183 19.235158,5.43661 35.164676,-1.61391 52.257839,-10.15918 20.52597,-10.25564 39.06612,-19.48201 62.51794,-14.13621 -19.81888,-9.92454 -37.78554,-7.46483 -58.50875,-1.84252 20.28896,-10.32886 39.39078,-18.36206 62.3745,-12.85695 z"
         style="fill:#000000"
         id="path14" /><path
         inkscape:connector-curvature="0"
         d="m 38.945891,234.7459 c 0,3.96482 0,7.80406 0.121653,9.81889 -0.425852,0.72874 -2.133331,1.40275 -3.596191,1.40275 -0.06168,0 -2.074146,-3.11102 -4.939367,-6.64947 L 16.446299,221.87688 c -3.474538,-4.39121 -5.548159,-6.89029 -6.6457963,-7.80564 -0.3041993,0.60879 -0.3041993,1.64501 -0.3041993,3.90197 v 11.8328 c 0,4.93976 0.2430445,9.51206 0.9143036,11.16009 0.549081,1.27966 1.951049,1.64593 3.536219,1.94908 l 1.707348,0.24541 c 0.487007,0.48885 0.365747,1.77034 0,2.13281 -3.292518,-0.1189 -5.7314929,-0.18281 -8.1703365,-0.18281 -2.2560353,0 -4.5115457,0.0639 -6.82821087,0.18281 -0.36627273,-0.36247 -0.48805743,-1.64396 0,-2.13281 l 1.03608857,-0.18333 c 1.6463244,-0.36628 2.8041977,-0.7315 3.3527538,-2.01116 0.6097109,-1.64816 0.8541989,-6.22033 0.8541989,-11.16009 v -15.4912 c 0,-3.35289 0,-4.32782 -0.4269026,-5.18202 -0.4272963,-1.03701 -1.3416002,-1.64764 -3.4758508,-2.07362 L 0.2893539,206.81429 C 0.13712302,206.64014 0.0473593,206.34159 0.0219,206.02177 v -0.38137 c 0.03661415,-0.45249 0.20419935,-0.86797 0.51049836,-0.95944 2.86627114,0.11889 5.91443194,0.18189 8.41534894,0.18189 2.0727017,0 3.8412047,-0.061 5.1217817,-0.18229 0.610629,2.74383 4.573488,7.37729 10.060623,13.90406 l 5.121782,6.03806 c 2.744355,3.17125 4.451309,5.30367 5.854589,6.70826 0.24357,-0.61115 0.243439,-1.64908 0.243439,-2.74449 l 1.31e-4,-8.41705 c 0,-4.93898 -0.24357,-9.51299 -0.915354,-11.16207 -0.549081,-1.27874 -1.889763,-1.64304 -3.536087,-1.94816 l -1.646718,-0.24488 c -0.487008,-0.48806 -0.365354,-1.76811 0,-2.13333 3.293436,0.11889 5.671256,0.18189 8.171255,0.18189 2.255116,0 4.450915,-0.0612 6.829129,-0.18242 0.366273,0.36575 0.487008,1.6458 0,2.13478 l -1.097637,0.18189 c -1.584645,0.36706 -2.743962,0.73136 -3.293567,2.01338 -0.669423,1.6458 -0.914304,6.21994 -0.914304,11.16062 z"
         style="fill:#000000"
         id="path16" /><path
         inkscape:connector-curvature="0"
         d="m 53.432365,227.97556 c 0.855117,0 1.829264,-0.12362 2.501442,-0.54816 0.304593,-0.18662 0.424934,-0.79672 0.424934,-1.40184 1.31e-4,-2.01351 -1.157348,-3.35603 -3.230444,-3.35603 -2.561547,0 -4.756034,2.43937 -4.756034,4.38976 0,0.85551 0.852755,0.91627 2.804591,0.91627 z m -4.023095,2.68294 c -1.402361,0 -1.525064,0.12073 -1.525064,1.09672 0,4.57493 2.927426,9.02637 8.597238,9.02637 1.707873,0 4.025063,-0.3643 5.670863,-3.17086 0.670865,-0.12126 1.585694,0.36627 1.585694,1.40091 -2.500523,5.18478 -7.012069,6.95564 -10.670859,6.95564 -8.231491,0 -12.681882,-5.79593 -12.681882,-12.44303 0,-7.68438 5.548553,-13.66168 13.169808,-13.66168 6.34081,0 9.755637,4.08622 9.755637,8.78386 0,1.15826 -0.304724,2.01207 -2.194093,2.01207 z"
         style="fill:#000000"
         id="path18" /><path
         inkscape:connector-curvature="0"
         d="m 75.333269,224.01231 c -0.792125,0 -0.853149,0.0592 -0.853149,1.40275 v 9.14488 c 0,3.41706 0,7.19855 4.268108,7.19855 0.853674,0 1.828608,-0.42638 2.561547,-0.91391 0.608398,0.1815 0.97454,0.85184 0.851837,1.58425 -1.706955,1.82874 -4.999079,3.53845 -8.779129,3.53845 -5.061545,0 -6.82926,-2.92821 -6.82926,-6.95551 l 1.31e-4,-13.59684 c 0,-1.28241 -0.06115,-1.40275 -1.158792,-1.40275 h -1.889369 c -0.671259,-0.24856 -0.854199,-1.46483 -0.366666,-1.89305 1.889762,-0.6685 3.597241,-1.7681 5.06102,-2.74264 1.097243,-0.79213 2.622308,-2.07166 4.512071,-4.75919 0.425984,-0.24212 1.524539,-0.17966 1.829657,0.30643 v 4.57454 c 0,1.15787 0.06115,1.21903 1.158398,1.21903 l 5.427294,-1.3e-4 c 0.304724,0.24304 0.487007,0.61115 0.487007,1.15931 0,0.67087 -0.182414,1.76667 -0.792125,2.1357 z"
         style="fill:#000000"
         id="path20" /><path
         inkscape:connector-curvature="0"
         d="m 97.353203,234.80495 c 0,4.75748 0.610236,7.74501 5.367187,7.74501 4.51194,-1.3e-4 6.88937,-3.47506 6.88937,-8.41574 0,-5.30617 -3.04908,-9.02506 -8.90144,-9.02506 -3.354592,0 -3.354592,0.0602 -3.354592,2.50144 v 7.19343 z m 0,-14.08752 c 0,1.58701 0.06207,1.70656 3.232417,1.70656 5.24356,-1.3e-4 7.19487,-3.35184 7.19487,-7.01154 0,-5.30564 -3.29304,-7.92835 -7.50039,-7.92835 -2.864824,0 -2.926897,0.4899 -2.926897,3.17231 z m -8.414824,-5.91614 c 0,-6.15787 -0.121785,-6.82729 -2.682413,-7.13425 l -1.646718,-0.2454 c -0.548556,-0.30525 -0.670866,-2.13386 0.244357,-2.19501 4.63438,-0.30407 9.085296,-0.54948 15.183845,-0.54948 5.85236,0 9.75643,0.67218 12.43753,2.25827 2.62217,1.58517 4.20643,4.14776 4.20643,7.74356 0,5.12401 -4.32822,7.13609 -6.21811,7.62546 -0.6105,0.11942 -1.22073,0.36522 -1.22073,0.66994 0,0.18229 0.30643,0.36391 0.85551,0.48793 4.81666,1.0374 8.90091,4.20551 8.96246,10.12033 0.0615,5.61155 -3.29213,8.90564 -7.13241,10.24869 -3.84304,1.3412 -8.41483,1.52401 -12.13464,1.52401 -2.194487,0 -4.511677,-0.24633 -6.280573,-0.24633 -2.988844,0 -5.976374,0.0635 -9.450913,0.18426 -0.487007,-0.36523 -0.487007,-1.95 0,-2.13281 l 1.768503,-0.36667 c 2.743043,-0.54816 3.109316,-0.97546 3.109316,-6.46443 l -0.0014,-21.52807 z"
         style="fill:#000000"
         id="path22" /><path
         inkscape:connector-curvature="0"
         d="m 132.35791,246.0871 c -5.6084,0 -9.08478,-1.5857 -10.36443,-2.31627 -1.15827,-1.3416 -1.9504,-5.73241 -1.9504,-9.88005 0.42599,-0.79173 1.82914,-0.8542 2.31667,-0.18333 1.21903,3.96391 5.30328,9.57401 10.487,9.57401 4.51115,0 6.58569,-3.10971 6.58569,-6.15787 0,-4.93937 -4.63333,-7.86666 -8.29264,-9.6958 -4.39016,-2.19816 -9.14619,-5.85459 -9.20604,-11.89395 1.4e-4,-6.89029 5.30512,-11.64908 14.14593,-11.64908 2.01154,0 4.51102,0.24541 6.95131,0.97822 0.79225,0.24357 1.34028,0.36391 2.0727,0.48661 0.48569,1.3416 1.09763,4.63517 1.09763,8.72178 -0.30538,0.73005 -1.83005,0.79213 -2.37821,0.18465 -1.03701,-3.11247 -3.6601,-7.56483 -8.04999,-7.56483 -4.0231,0 -6.21759,2.62362 -6.21759,5.67086 0,2.80643 2.49725,5.36627 5.54633,6.95236 l 4.02598,2.13648 c 3.77965,2.01208 8.59711,5.54816 8.59711,12.25656 1.3e-4,7.50183 -6.16063,12.37965 -15.36705,12.37965 z"
         style="fill:#000000"
         id="path24" /><path
         inkscape:connector-curvature="0"
         d="m 161.11773,234.07136 c 0,3.35603 0.1227,5.55052 1.21903,6.83201 1.0996,1.22034 2.86614,1.76851 5.06154,1.76851 10.54777,0 14.14579,-9.38937 14.14579,-17.68516 1.4e-4,-10.97782 -5.79251,-17.50275 -16.82964,-17.50275 -1.64344,-1.3e-4 -2.8046,0.30499 -3.16982,0.79488 -0.36614,0.48649 -0.4269,1.64489 -0.4269,3.53425 v 22.25918 z m -8.7185,-19.33096 c 0,-5.79304 -0.12218,-6.95144 -2.92729,-7.25643 l -1.15788,-0.12086 c -0.60866,-0.30525 -0.60879,-2.07546 0.12271,-2.13662 5.12191,-0.3042 9.87689,-0.5496 16.34119,-0.5496 4.99974,0 9.99816,0.49173 14.20656,2.01391 7.98844,2.86574 12.37676,10.06206 12.37676,17.68384 1.3e-4,8.17349 -3.90184,14.76102 -10.91285,18.23608 -4.1458,2.07494 -9.14724,2.86483 -15.42729,2.86483 -2.8643,0 -5.91627,-0.36667 -8.10984,-0.36667 -2.92769,0 -6.0374,0.0634 -9.51154,0.18426 -0.4874,-0.36536 -0.4874,-1.82822 0,-2.13294 l 1.88989,-0.30499 c 2.74357,-0.48714 3.10971,-0.91391 3.10971,-6.52598 z"
         style="fill:#000000"
         id="path26" /><path
         inkscape:connector-curvature="0"
         d="m 189.07047,209.35746 c 0,-1.50971 0.53569,-2.8 1.60748,-3.86889 1.07126,-1.06903 2.36286,-1.6042 3.87257,-1.6042 1.50944,0 2.7996,0.53517 3.86863,1.6042 1.06798,1.06889 1.60275,2.35918 1.60275,3.86889 0,1.51116 -0.53477,2.80144 -1.60275,3.87362 -1.06903,1.07126 -2.35932,1.60748 -3.86863,1.60748 -1.50958,0 -2.80131,-0.53609 -3.87257,-1.60748 -1.07179,-1.07218 -1.60748,-2.36246 -1.60748,-3.87362 z m 10.05419,0 c 0,-1.26483 -0.44541,-2.34343 -1.33806,-3.23648 -0.89238,-0.89212 -1.97034,-1.33897 -3.23608,-1.33897 -1.2647,0 -2.34528,0.44685 -3.24016,1.33897 -0.89541,0.89305 -1.34265,1.97179 -1.34265,3.23648 0,1.26536 0.44724,2.34541 1.34265,3.24081 0.89488,0.89344 1.97546,1.34213 3.24029,1.34213 1.26575,-1.3e-4 2.34343,-0.44869 3.23609,-1.34213 0.89265,-0.8954 1.33792,-1.97545 1.33792,-3.24081 z m -2.87375,3.29593 -1.71706,-2.90288 h -0.97493 v 2.90275 h -0.95735 v -6.7328 h 1.72795 c 1.62126,0 2.43149,0.62165 2.43149,1.86338 0,0.86391 -0.43622,1.47494 -1.30839,1.83097 l 1.84632,3.03845 z m -2.69199,-5.91758 v 2.25092 c 0.0806,0.011 0.29068,0.0152 0.62952,0.0152 0.62507,0 1.04593,-0.0797 1.26116,-0.23976 0.21575,-0.16076 0.32362,-0.46628 0.32362,-0.91811 1.3e-4,-0.74449 -0.48517,-1.11667 -1.45459,-1.11667 h -0.37966 l -0.38005,0.008 z"
         style="fill:#000000"
         id="path28" /></g></g></g></svg>