<?xml version="1.0" encoding="UTF-8" standalone="no"?>
<svg
   xmlns:dc="http://purl.org/dc/elements/1.1/"
   xmlns:cc="http://creativecommons.org/ns#"
   xmlns:rdf="http://www.w3.org/1999/02/22-rdf-syntax-ns#"
   xmlns:svg="http://www.w3.org/2000/svg"
   xmlns="http://www.w3.org/2000/svg"
   xmlns:sodipodi="http://sodipodi.sourceforge.net/DTD/sodipodi-0.dtd"
   xmlns:inkscape="http://www.inkscape.org/namespaces/inkscape"
   version="1.1"
   width="24"
   height="24"
   viewBox="0 0 24.00 24.00"
   enable-background="new 0 0 24.00 24.00"
   xml:space="preserve"
   id="svg4"
   sodipodi:docname="omnios.svg"
   inkscape:version="0.92.4 (5da689c313, 2019-01-14)"><metadata
   id="metadata10"><rdf:RDF><cc:Work
       rdf:about=""><dc:format>image/svg+xml</dc:format><dc:type
         rdf:resource="http://purl.org/dc/dcmitype/StillImage" /></cc:Work></rdf:RDF></metadata><defs
   id="defs8" /><sodipodi:namedview
   pagecolor="#ffffff"
   bordercolor="#666666"
   borderopacity="1"
   objecttolerance="10"
   gridtolerance="10"
   guidetolerance="10"
   inkscape:pageopacity="0"
   inkscape:pageshadow="2"
   inkscape:window-width="1920"
   inkscape:window-height="1031"
   id="namedview6"
   showgrid="false"
   inkscape:zoom="27.812867"
   inkscape:cx="6.2911219"
   inkscape:cy="11.411516"
   inkscape:window-x="0"
   inkscape:window-y="0"
   inkscape:window-maximized="1"
   inkscape:current-layer="Spread" />
	
<g
   style="font-size:16px;font-family:'Times New Roman';fill:none;stroke:#000000"
   transform="matrix(0.03038306,0,0,-0.03038306,0.46059409,18.577878)"
   id="Spread"><path
     id="path3717"
     d="m 91.9,212.525 c 14.173,0 25.867,4.965 35.089,14.899 9.222,9.934 13.83,22.375 13.83,37.328 0,14.814 -4.663,27.275 -13.989,37.384 -9.331,10.113 -20.972,15.168 -34.93,15.168 -14.169,0 -25.916,-5.037 -35.247,-15.112 -9.326,-10.078 -13.99,-22.556 -13.99,-37.44 0,-15.092 4.591,-27.574 13.776,-37.434 9.187,-9.862 21.008,-14.793 35.461,-14.793 z m 83.312,52.227 c 0,-11.177 -2.081,-21.753 -6.248,-31.719 -4.164,-9.971 -10.164,-18.729 -17.993,-26.275 -8.118,-7.765 -17.271,-13.708 -27.456,-17.84 -10.18,-4.128 -20.719,-6.194 -31.615,-6.194 -9.54,0 -18.884,1.62 -28.036,4.86 -9.15,3.239 -17.533,7.887 -25.154,13.937 -9.826,7.835 -17.355,17.2 -22.589,28.094 -5.236,10.895 -7.848,22.608 -7.848,35.137 0,11.254 2.059,21.808 6.192,31.671 4.13,9.863 10.181,18.641 18.161,26.331 7.828,7.615 16.926,13.527 27.285,17.729 10.361,4.198 21.028,6.299 31.989,6.299 10.896,0 21.49,-2.101 31.777,-6.299 10.288,-4.202 19.388,-10.114 27.294,-17.729 7.902,-7.69 13.917,-16.487 18.047,-26.386 4.13,-9.895 6.194,-20.434 6.194,-31.616 z"
     inkscape:connector-curvature="0"
     style="fill:#231f20;fill-rule:nonzero;stroke:none;stroke-width:0.24600001;stroke-linejoin:miter;marker-start:none;marker-end:none" /><path
     id="path3719"
     d="m 91.9,212.525 c 14.173,0 25.867,4.965 35.089,14.899 9.222,9.934 13.83,22.375 13.83,37.328 0,14.814 -4.663,27.275 -13.989,37.384 -9.331,10.113 -20.972,15.168 -34.93,15.168 -14.169,0 -25.916,-5.037 -35.247,-15.112 -9.326,-10.078 -13.99,-22.556 -13.99,-37.44 0,-15.092 4.591,-27.574 13.776,-37.434 9.187,-9.862 21.008,-14.793 35.461,-14.793 z m 83.312,52.227 c 0,-11.177 -2.081,-21.753 -6.248,-31.719 -4.164,-9.971 -10.164,-18.729 -17.993,-26.275 -8.118,-7.765 -17.271,-13.708 -27.456,-17.84 -10.18,-4.128 -20.719,-6.194 -31.615,-6.194 -9.54,0 -18.884,1.62 -28.036,4.86 -9.15,3.239 -17.533,7.887 -25.154,13.937 -9.826,7.835 -17.355,17.2 -22.589,28.094 -5.236,10.895 -7.848,22.608 -7.848,35.137 0,11.254 2.059,21.808 6.192,31.671 4.13,9.863 10.181,18.641 18.161,26.331 7.828,7.615 16.926,13.527 27.285,17.729 10.361,4.198 21.028,6.299 31.989,6.299 10.896,0 21.49,-2.101 31.777,-6.299 10.288,-4.202 19.388,-10.114 27.294,-17.729 7.902,-7.69 13.917,-16.487 18.047,-26.386 4.13,-9.895 6.194,-20.434 6.194,-31.616 z"
     inkscape:connector-curvature="0"
     style="fill:none;stroke:#231f20;stroke-width:5.91200018;stroke-linecap:round;stroke-linejoin:round;marker-start:none;marker-end:none" /><path
     id="path3721"
     d="m 180.654,186.89 23.817,156.37 h 35.035 l 30.121,-92.069 c 0.64,-1.922 1.332,-4.737 2.084,-8.442 0.746,-3.7 1.441,-7.939 2.081,-12.706 0.57,4.838 1.209,9.165 1.924,12.976 0.712,3.807 1.387,6.601 2.029,8.385 l 30.654,91.856 h 34.498 l 23.927,-156.37 h -31.723 l -11.428,94.311 c -0.856,6.98 -1.425,12.25 -1.711,15.807 -0.284,3.563 -0.425,6.872 -0.425,9.938 0,1.633 0.018,2.863 0.053,3.682 0.033,0.821 0.088,1.547 0.161,2.19 -1.071,-6.123 -2.086,-11.409 -3.044,-15.862 -0.963,-4.451 -1.836,-7.816 -2.618,-10.09 L 282.979,186.89 H 264.18 l -32.577,99.976 c -0.286,0.923 -0.909,3.487 -1.869,7.69 -0.959,4.196 -2.297,10.322 -4.006,18.37 v -4.595 c 0,-7.262 -0.641,-16.162 -1.922,-26.704 l -0.108,-0.426 -11.322,-94.311 z"
     inkscape:connector-curvature="0"
     style="fill:#231f20;fill-rule:nonzero;stroke:none;stroke-width:0.24600001;stroke-linecap:round;stroke-linejoin:round;marker-start:none;marker-end:none" /><path
     id="path3723"
     d="m 180.654,186.89 23.817,156.37 h 35.035 l 30.121,-92.069 c 0.64,-1.922 1.332,-4.737 2.084,-8.442 0.746,-3.7 1.441,-7.939 2.081,-12.706 0.57,4.838 1.209,9.165 1.924,12.976 0.712,3.807 1.387,6.601 2.029,8.385 l 30.654,91.856 h 34.498 l 23.927,-156.37 h -31.723 l -11.428,94.311 c -0.856,6.98 -1.425,12.25 -1.711,15.807 -0.284,3.563 -0.425,6.872 -0.425,9.938 0,1.633 0.018,2.863 0.053,3.682 0.033,0.821 0.088,1.547 0.161,2.19 -1.071,-6.123 -2.086,-11.409 -3.044,-15.862 -0.963,-4.451 -1.836,-7.816 -2.618,-10.09 L 282.979,186.89 H 264.18 l -32.577,99.976 c -0.286,0.923 -0.909,3.487 -1.869,7.69 -0.959,4.196 -2.297,10.322 -4.006,18.37 v -4.595 c 0,-7.262 -0.641,-16.162 -1.922,-26.704 l -0.108,-0.426 -11.322,-94.311 z"
     inkscape:connector-curvature="0"
     style="fill:none;stroke:#231f20;stroke-width:5.91200018;stroke-linecap:round;stroke-linejoin:round;marker-start:none;marker-end:none" /><path
     id="path3725"
     d="m 381.326,186.89 v 156.37 h 34.71 l 69.213,-91.001 c 1.997,-2.565 4.185,-6.179 6.569,-10.843 2.392,-4.665 4.86,-10.168 7.425,-16.501 -0.787,4.625 -1.351,9.22 -1.709,13.775 -0.358,4.56 -0.532,10.255 -0.532,17.091 v 87.479 h 31.934 l 0.161,-122.142 c 0,0 -24.141,0.122 -46.926,-16.197 -0.422,-0.303 -57.163,74.682 -57.163,74.682 -1.989,2.562 -4.161,6.174 -6.512,10.84 -2.349,4.661 -4.842,10.233 -7.475,16.716 0.778,-4.485 1.352,-9.026 1.709,-13.62 0.351,-4.593 0.532,-10.38 0.532,-17.355 V 186.89 Z"
     inkscape:connector-curvature="0"
     style="fill:#231f20;fill-rule:nonzero;stroke:none;stroke-width:0.24600001;stroke-linecap:round;stroke-linejoin:round;marker-start:none;marker-end:none" /><path
     id="path3727"
     d="m 381.326,186.89 v 156.37 h 34.71 l 69.213,-91.001 c 1.997,-2.565 4.185,-6.179 6.569,-10.843 2.392,-4.665 4.86,-10.168 7.425,-16.501 -0.787,4.625 -1.351,9.22 -1.709,13.775 -0.358,4.56 -0.532,10.255 -0.532,17.091 v 87.479 h 31.934 l 0.161,-122.142 c 0,0 -24.141,0.122 -46.926,-16.197 -0.422,-0.303 -57.163,74.682 -57.163,74.682 -1.989,2.562 -4.161,6.174 -6.512,10.84 -2.349,4.661 -4.842,10.233 -7.475,16.716 0.778,-4.485 1.352,-9.026 1.709,-13.62 0.351,-4.593 0.532,-10.38 0.532,-17.355 V 186.89 Z"
     inkscape:connector-curvature="0"
     style="fill:none;stroke:#231f20;stroke-width:5.91200018;stroke-linecap:round;stroke-linejoin:round;marker-start:none;marker-end:none" /><path
     id="path3729"
     d="m 554.716,218.348 c 0.05,-6.898 0.072,124.912 0.072,124.912 l 8.553,-0.213 c 0,0 10.337,-16.321 24.754,-26.386 0.123,-6.303 -0.003,-92.032 -0.123,-118.884 0,0 -10.788,13.303 -33.256,20.571 z"
     inkscape:connector-curvature="0"
     style="fill:#231f20;fill-rule:nonzero;stroke:none;stroke-width:0.24600001;stroke-linecap:round;stroke-linejoin:round;marker-start:none;marker-end:none" /><path
     id="path3731"
     d="m 554.716,218.348 c 0.05,-6.898 0.072,124.912 0.072,124.912 l 8.553,-0.213 c 0,0 10.337,-16.321 24.754,-26.386 0.123,-6.303 -0.003,-92.032 -0.123,-118.884 0,0 -10.788,13.303 -33.256,20.571 z"
     inkscape:connector-curvature="0"
     style="fill:none;stroke:#231f20;stroke-width:5.91200018;stroke-linecap:round;stroke-linejoin:round;marker-start:none;marker-end:none" /><path
     id="path3733"
     d="m 602.855,307.819 c 0,0 132.293,-82.788 111.5,-173.519 0,0 -5.719,55.032 -52.524,72.77 0,0 -49.759,10.838 -22.467,54.501 0,0 -19.251,13.961 -35.957,12.539 0,0 29.607,7.635 -0.552,33.709 z"
     inkscape:connector-curvature="0"
     style="fill:#000000;fill-rule:nonzero;stroke:none;stroke-width:0.24600001;stroke-linecap:round;stroke-linejoin:round;marker-start:none;marker-end:none" /><path
     id="path3735"
     d="m 578.525,417.66 c 0,0 -52.233,-48.361 29.312,-103.334 0,0 113.056,-69.589 119.523,-161.632 0,0 4.46,-33.769 -27.135,-70.591 29.325,15.036 63.665,72.802 32.395,129.539 0,0 -26.525,58.818 -92.641,102.826 0,0 -4.378,5.347 3.324,14.561 0,0 -14.295,0.915 -14.561,-7.83 0,0 -36.72,23.118 -27.932,51.139 0,0 7.354,25.303 25.263,24.636 0,0 -13.617,13.544 -35.853,1.947 0,0 -14.767,3.943 -11.695,18.739 z"
     inkscape:connector-curvature="0"
     style="fill:#000000;fill-rule:nonzero;stroke:none;stroke-width:0.24600001;stroke-linecap:round;stroke-linejoin:round;marker-start:none;marker-end:none" /><path
     id="path3737"
     d="m 601.566,522.23 c 0,0 -71.355,-78.33 38.352,-94.211 0,0 -73.15,16.059 -38.352,94.211 z"
     inkscape:connector-curvature="0"
     style="fill:#000000;fill-rule:nonzero;stroke:none;stroke-width:0.24600001;stroke-linecap:round;stroke-linejoin:round;marker-start:none;marker-end:none" /><path
     id="path3739"
     d="m 637.336,422.472 c 0,0 11.406,0.753 7.435,7.003 0,0 -70.236,38.003 -19.208,82.453 0,0 -24.401,-46.998 32.273,-84.811 0,0 25.78,-16.753 -20.5,-4.645 z"
     inkscape:connector-curvature="0"
     style="fill:#000000;fill-rule:nonzero;stroke:none;stroke-width:0.24600001;stroke-linecap:round;stroke-linejoin:round;marker-start:none;marker-end:none" /><path
     id="path3741"
     d="m 656.803,493.621 c 0,0 -40.653,-23.936 11.381,-71.149 0,0 1.76,-1.967 0.497,-3.361 0,0 8.946,1.17 -1.043,12.017 0,0 -30.033,37.396 -10.835,62.493 z"
     inkscape:connector-curvature="0"
     style="fill:#000000;fill-rule:nonzero;stroke:none;stroke-width:0.24600001;stroke-linecap:round;stroke-linejoin:round;marker-start:none;marker-end:none" /><path
     id="path3743"
     d="m 644.841,402.771 c 0,0 17.302,-0.084 23.855,-14.95 0,0 0.364,-2.851 3.158,-4.691 0,0 46.818,-8.185 21.949,-49.256 0,0 3.327,30.993 -23.773,32.454 0,0 -13.838,5.669 -2.668,13.217 0,0 -1.184,4.414 -5.139,3.874 0,0 -13.193,-1.791 -12.767,12.207 0,0 1.41,3.678 -4.615,7.145 z"
     inkscape:connector-curvature="0"
     style="fill:#000000;fill-rule:nonzero;stroke:none;stroke-width:0.24600001;stroke-linecap:round;stroke-linejoin:round;marker-start:none;marker-end:none" /><path
     id="path3745"
     d="m 531.007,98.799 c 11.489,0 20.971,4.027 28.449,12.081 7.476,8.055 11.215,18.143 11.215,30.269 0,12.007 -3.781,22.111 -11.344,30.309 -7.566,8.198 -17.006,12.299 -28.32,12.299 -11.489,0 -21.015,-4.086 -28.58,-12.255 -7.563,-8.17 -11.345,-18.287 -11.345,-30.353 0,-12.242 3.725,-22.361 11.172,-30.355 7.448,-7.998 17.031,-11.995 28.753,-11.995 z m 67.551,42.35 c 0,-9.067 -1.689,-17.639 -5.067,-25.723 -3.378,-8.083 -8.242,-15.184 -14.592,-21.303 -6.582,-6.294 -14.001,-11.115 -22.257,-14.463 -8.258,-3.348 -16.802,-5.023 -25.635,-5.023 -7.737,0 -15.316,1.313 -22.733,3.941 -7.42,2.626 -14.218,6.394 -20.396,11.3 -7.966,6.352 -14.073,13.944 -18.315,22.778 -4.244,8.832 -6.364,18.329 -6.364,28.493 0,9.12 1.672,17.679 5.02,25.677 3.349,7.994 8.258,15.111 14.725,21.348 6.35,6.176 13.725,10.968 22.126,14.375 8.401,3.407 17.046,5.109 25.937,5.109 8.833,0 17.421,-1.702 25.764,-5.109 8.343,-3.407 15.72,-8.199 22.128,-14.375 6.407,-6.237 11.287,-13.367 14.635,-21.392 3.348,-8.025 5.024,-16.571 5.024,-25.633 z"
     inkscape:connector-curvature="0"
     style="fill:#fbb040;fill-rule:nonzero;stroke:none;stroke-width:0.24600001;stroke-linecap:round;stroke-linejoin:round;marker-start:none;marker-end:none" /><path
     id="path3747"
     d="m 531.007,98.799 c 11.489,0 20.971,4.027 28.449,12.081 7.476,8.055 11.215,18.143 11.215,30.269 0,12.007 -3.781,22.111 -11.344,30.309 -7.566,8.198 -17.006,12.299 -28.32,12.299 -11.489,0 -21.015,-4.086 -28.58,-12.255 -7.563,-8.17 -11.345,-18.287 -11.345,-30.353 0,-12.242 3.725,-22.361 11.172,-30.355 7.448,-7.998 17.031,-11.995 28.753,-11.995 z m 67.551,42.35 c 0,-9.067 -1.689,-17.639 -5.067,-25.723 -3.378,-8.083 -8.242,-15.184 -14.592,-21.303 -6.582,-6.294 -14.001,-11.115 -22.257,-14.463 -8.258,-3.348 -16.802,-5.023 -25.635,-5.023 -7.737,0 -15.316,1.313 -22.733,3.941 -7.42,2.626 -14.218,6.394 -20.396,11.3 -7.966,6.352 -14.073,13.944 -18.315,22.778 -4.244,8.832 -6.364,18.329 -6.364,28.493 0,9.12 1.672,17.679 5.02,25.677 3.349,7.994 8.258,15.111 14.725,21.348 6.35,6.176 13.725,10.968 22.126,14.375 8.401,3.407 17.046,5.109 25.937,5.109 8.833,0 17.421,-1.702 25.764,-5.109 8.343,-3.407 15.72,-8.199 22.128,-14.375 6.407,-6.237 11.287,-13.367 14.635,-21.392 3.348,-8.025 5.024,-16.571 5.024,-25.633 z"
     inkscape:connector-curvature="0"
     style="fill:#000000;marker-start:none;marker-end:none;" /><path
     id="path3749"
     d="m 603.523,94.123 15.07,17.059 c 1.905,-4.676 4.965,-8.356 9.178,-11.041 4.215,-2.684 8.95,-4.027 14.203,-4.027 6.353,0 11.375,1.501 15.07,4.503 3.694,3.001 5.542,7.044 5.542,12.124 0,6.005 -6.149,11.982 -18.445,17.928 -3.984,1.904 -7.132,3.463 -9.44,4.677 -11.085,5.771 -18.765,11.415 -23.037,16.93 -4.273,5.512 -6.408,12.081 -6.408,19.702 0,10.449 4.142,19.038 12.428,25.764 8.283,6.725 19.037,10.09 32.258,10.09 7.679,0 14.303,-1.343 19.876,-4.028 5.572,-2.684 10.493,-6.884 14.766,-12.6 l -16.021,-15.329 c -1.906,3.694 -4.432,6.452 -7.579,8.272 -3.147,1.817 -6.942,2.727 -11.387,2.727 -5.37,0 -9.701,-1.342 -12.992,-4.027 -3.291,-2.685 -4.936,-6.163 -4.936,-10.436 0,-6.699 6.525,-12.816 19.573,-18.359 2.597,-1.098 4.589,-1.963 5.976,-2.599 10.739,-4.907 18.691,-10.45 23.858,-16.628 5.167,-6.178 7.751,-13.221 7.751,-21.13 0,-11.895 -4.057,-21.378 -12.168,-28.45 -8.111,-7.072 -19.008,-10.608 -32.692,-10.608 -9.699,0 -18.012,1.675 -24.942,5.023 -6.928,3.348 -12.095,8.169 -15.502,14.463 z"
     inkscape:connector-curvature="0"
     style="fill:#fbb040;fill-rule:nonzero;stroke:none;stroke-width:0.24600001;stroke-linecap:round;stroke-linejoin:round;marker-start:none;marker-end:none" /><path
     id="path3751"
     d="m 603.523,94.123 15.07,17.059 c 1.905,-4.676 4.965,-8.356 9.178,-11.041 4.215,-2.684 8.95,-4.027 14.203,-4.027 6.353,0 11.375,1.501 15.07,4.503 3.694,3.001 5.542,7.044 5.542,12.124 0,6.005 -6.149,11.982 -18.445,17.928 -3.984,1.904 -7.132,3.463 -9.44,4.677 -11.085,5.771 -18.765,11.415 -23.037,16.93 -4.273,5.512 -6.408,12.081 -6.408,19.702 0,10.449 4.142,19.038 12.428,25.764 8.283,6.725 19.037,10.09 32.258,10.09 7.679,0 14.303,-1.343 19.876,-4.028 5.572,-2.684 10.493,-6.884 14.766,-12.6 l -16.021,-15.329 c -1.906,3.694 -4.432,6.452 -7.579,8.272 -3.147,1.817 -6.942,2.727 -11.387,2.727 -5.37,0 -9.701,-1.342 -12.992,-4.027 -3.291,-2.685 -4.936,-6.163 -4.936,-10.436 0,-6.699 6.525,-12.816 19.573,-18.359 2.597,-1.098 4.589,-1.963 5.976,-2.599 10.739,-4.907 18.691,-10.45 23.858,-16.628 5.167,-6.178 7.751,-13.221 7.751,-21.13 0,-11.895 -4.057,-21.378 -12.168,-28.45 -8.111,-7.072 -19.008,-10.608 -32.692,-10.608 -9.699,0 -18.012,1.675 -24.942,5.023 -6.928,3.348 -12.095,8.169 -15.502,14.463 z"
     inkscape:connector-curvature="0"
     style="fill:#000000;marker-start:none;marker-end:none;" /><g
     id="Group_1"
     style="fill:#000000;fill-rule:nonzero;stroke:none;stroke-width:0.71700001;stroke-linejoin:miter"><path
       id="path3753"
       d="M 35.762,98.875 V 87.169 C 31.736,85.37 28.405,84.47 25.765,84.47 c -5.922,0 -10.867,1.95 -14.84,5.849 -3.954,3.916 -5.932,8.803 -5.932,14.655 0,5.877 1.835,10.748 5.509,14.612 3.671,3.873 8.331,5.813 13.98,5.813 3.93,0 7.737,-0.916 11.423,-2.744 v -11.058 c -3.417,1.64 -6.54,2.46 -9.369,2.46 -2.63,0 -4.743,-0.8 -6.343,-2.401 -1.598,-1.596 -2.398,-3.704 -2.398,-6.318 0,-2.601 0.796,-4.701 2.381,-6.301 1.584,-1.596 3.671,-2.395 6.255,-2.395 2.362,0 5.471,0.745 9.331,2.233 z"
       inkscape:connector-curvature="0"
       style="marker-start:none;marker-end:none;fill:#000000" /><path
       id="path3755"
       d="m 44.011,104.87 c 0,6.07 1.932,11.024 5.793,14.855 3.877,3.849 8.85,5.772 14.919,5.772 5.634,0 10.363,-1.955 14.185,-5.871 3.833,-3.918 5.75,-8.775 5.75,-14.572 0,-5.908 -1.917,-10.819 -5.75,-14.735 -3.822,-3.899 -8.611,-5.849 -14.369,-5.849 -6.489,0 -11.538,2.063 -15.142,6.195 -3.59,4.133 -5.386,8.867 -5.386,14.205 z m 29.125,0 c 0,2.655 -0.875,4.974 -2.62,6.951 -1.736,1.978 -3.764,2.968 -6.081,2.968 -2.396,0 -4.471,-0.93 -6.215,-2.784 -1.736,-1.856 -2.602,-4.077 -2.602,-6.667 0,-2.844 0.859,-5.257 2.58,-7.234 1.722,-1.978 3.802,-2.969 6.237,-2.969 2.317,0 4.345,0.969 6.081,2.907 1.745,1.936 2.62,4.213 2.62,6.828 z"
       inkscape:connector-curvature="0"
       style="marker-start:none;marker-end:none;fill:#000000" /><path
       id="path3757"
       d="m 107.116,124.625 v -6.262 c 0.543,0.367 1.349,1.065 2.418,2.098 1.074,1.039 2.101,1.923 3.091,2.638 0.99,0.719 2.173,1.296 3.556,1.727 1.394,0.448 2.655,0.671 3.782,0.671 1.8,0 3.75,-0.635 5.852,-1.909 2.099,-1.261 3.854,-3.504 5.262,-6.725 2.441,3.103 4.826,5.317 7.154,6.645 2.331,1.328 4.505,1.989 6.523,1.989 3.565,0 6.579,-1.466 9.043,-4.409 2.466,-2.939 3.7,-6.562 3.7,-10.872 V 85.301 h -11.706 v 21.806 c 0,2.167 -0.596,3.992 -1.789,5.464 -1.179,1.481 -2.608,2.218 -4.287,2.218 -2.007,0 -3.738,-0.84 -5.203,-2.521 -1.462,-1.665 -2.195,-3.658 -2.195,-5.976 V 85.301 h -11.623 v 21.255 c 0,2.292 -0.606,4.221 -1.809,5.793 -1.208,1.573 -2.665,2.358 -4.371,2.358 -2.006,0 -3.738,-0.862 -5.204,-2.58 -1.463,-1.719 -2.194,-3.788 -2.194,-6.2 V 85.301 H 95.308 v 39.324 z"
       inkscape:connector-curvature="0"
       style="marker-start:none;marker-end:none;fill:#000000" /><path
       id="path3759"
       d="m 181.295,124.625 v -6.262 c 0.541,0.367 1.35,1.065 2.419,2.098 1.07,1.039 2.101,1.923 3.089,2.638 0.99,0.719 2.174,1.296 3.556,1.727 1.397,0.448 2.655,0.671 3.783,0.671 1.799,0 3.75,-0.635 5.852,-1.909 2.1,-1.261 3.853,-3.504 5.261,-6.725 2.44,3.103 4.825,5.317 7.153,6.645 2.331,1.328 4.506,1.989 6.525,1.989 3.564,0 6.578,-1.466 9.044,-4.409 2.466,-2.939 3.697,-6.562 3.697,-10.872 V 85.301 h -11.703 v 21.806 c 0,2.167 -0.598,3.992 -1.791,5.464 -1.178,1.481 -2.605,2.218 -4.285,2.218 -2.008,0 -3.739,-0.84 -5.205,-2.521 -1.463,-1.665 -2.194,-3.658 -2.194,-5.976 V 85.301 h -11.624 v 21.255 c 0,2.292 -0.604,4.221 -1.809,5.793 -1.207,1.573 -2.662,2.358 -4.369,2.358 -2.008,0 -3.74,-0.862 -5.205,-2.58 -1.462,-1.719 -2.194,-3.788 -2.194,-6.2 V 85.301 h -11.807 v 39.324 z"
       inkscape:connector-curvature="0"
       style="marker-start:none;marker-end:none;fill:#000000" /><path
       id="path3761"
       d="m 243.036,124.544 h 11.89 v -18.838 c 0,-2.724 0.691,-4.995 2.071,-6.808 1.396,-1.803 3.11,-2.704 5.144,-2.704 2.169,0 3.987,0.871 5.465,2.621 1.476,1.749 2.216,3.95 2.216,6.603 v 19.126 H 281.71 V 101.68 c 0,-4.851 -1.851,-8.915 -5.546,-12.194 -3.702,-3.281 -8.314,-4.917 -13.842,-4.917 -5.852,0 -10.533,1.646 -14.043,4.937 -3.494,3.293 -5.243,7.668 -5.243,13.132 z"
       inkscape:connector-curvature="0"
       style="marker-start:none;marker-end:none;fill:#000000" /><path
       id="path3763"
       d="m 305.449,124.625 v -4.652 c 3.998,3.738 8.194,5.605 12.583,5.605 3.749,0 6.851,-1.536 9.306,-4.612 2.452,-3.075 3.677,-7.002 3.677,-11.787 V 85.301 h -11.889 v 21.989 c 0,2.263 -0.616,4.165 -1.85,5.712 -1.233,1.556 -2.734,2.333 -4.51,2.333 -2.128,0 -3.881,-0.98 -5.264,-2.943 -1.368,-1.968 -2.053,-4.501 -2.053,-7.603 V 85.301 h -11.704 v 39.324 z"
       inkscape:connector-curvature="0"
       style="marker-start:none;marker-end:none;fill:#000000" /><path
       id="path3765"
       d="m 341.584,139.176 c 0,1.978 0.719,3.677 2.157,5.1 1.435,1.437 3.155,2.156 5.16,2.156 2.019,0 3.739,-0.719 5.161,-2.156 1.437,-1.423 2.156,-3.122 2.156,-5.1 0,-2.02 -0.719,-3.746 -2.156,-5.181 -1.422,-1.422 -3.142,-2.133 -5.161,-2.133 -2.005,0 -3.725,0.711 -5.16,2.133 -1.438,1.435 -2.157,3.161 -2.157,5.181 z m 1.504,-14.551 h 11.706 V 85.301 h -11.706 z"
       inkscape:connector-curvature="0"
       style="marker-start:none;marker-end:none;fill:#000000" /><path
       id="path3767"
       d="m 366.869,138.121 h 11.704 v -13.496 h 5.632 v -10.75 h -5.632 V 85.301 h -11.704 v 28.574 h -4.474 v 10.75 h 4.474 z"
       inkscape:connector-curvature="0"
       style="marker-start:none;marker-end:none;fill:#000000" /><path
       id="path3769"
       d="m 388.004,124.544 h 12.479 l 11.3,-22.864 10.058,22.864 h 11.968 L 409.362,67.965 H 397.19 l 8.777,20.119 z"
       inkscape:connector-curvature="0"
       style="marker-start:none;marker-end:none;fill:#000000" /></g><g
     id="Group_2"
     style="fill:#000000;fill-rule:nonzero;stroke:none;stroke-width:0.71700001;stroke-linejoin:miter"><path
       id="path3772"
       d="m 316.653,20.467 h -28.045 c 0.16,-2.516 0.994,-4.569 2.5,-6.155 1.502,-1.585 3.264,-2.376 5.283,-2.376 3.592,0 6.407,1.624 8.454,4.877 l 10.752,-3.558 C 311.598,6.264 305.394,2.77 296.98,2.77 c -6.193,0 -11.117,1.876 -14.775,5.628 -3.657,3.752 -5.488,8.801 -5.488,15.141 0,5.705 1.934,10.486 5.793,14.348 3.862,3.873 8.609,5.812 14.247,5.812 5.663,0 10.39,-2.033 14.184,-6.098 3.808,-4.061 5.712,-9.145 5.712,-15.24 z m -27.946,7.866 h 15.811 c -1.094,4.921 -3.61,7.377 -7.538,7.377 -2.251,0 -4.117,-0.642 -5.608,-1.929 -1.48,-1.273 -2.366,-3.087 -2.665,-5.448 z"
       inkscape:connector-curvature="0"
       style="marker-start:none;marker-end:none;fill:#000000" /><path
       id="path3774"
       d="m 350.511,64.651 h 11.805 V 3.603 h -11.523 v 6.726 h -0.181 c -3.415,-4.917 -7.657,-7.375 -12.722,-7.375 -4.51,0 -8.363,1.962 -11.544,5.893 -3.184,3.939 -4.776,8.751 -4.776,14.429 0,5.664 1.645,10.498 4.939,14.509 3.291,4.012 7.239,6.014 11.847,6.014 2.616,0 4.824,-0.477 6.627,-1.441 1.8,-0.962 3.646,-2.527 5.528,-4.695 z m -8.64,-32.474 c -1.923,0 -3.728,-0.887 -5.404,-2.666 -1.665,-1.759 -2.501,-4.142 -2.501,-7.15 0,-2.412 0.74,-4.472 2.216,-6.179 1.475,-1.708 3.265,-2.561 5.366,-2.561 2.505,0 4.59,0.922 6.259,2.765 1.682,1.84 2.52,4.139 2.52,6.89 0,2.369 -0.819,4.442 -2.46,6.219 -1.624,1.787 -3.623,2.682 -5.996,2.682 z"
       inkscape:connector-curvature="0"
       style="marker-start:none;marker-end:none;fill:#000000" /><path
       id="path3776"
       d="m 372.681,57.477 c 0,1.979 0.721,3.681 2.157,5.102 1.436,1.436 3.156,2.156 5.162,2.156 2.017,0 3.738,-0.72 5.16,-2.156 1.437,-1.421 2.157,-3.123 2.157,-5.102 0,-2.016 -0.72,-3.744 -2.157,-5.181 -1.422,-1.422 -3.143,-2.134 -5.16,-2.134 -2.006,0 -3.726,0.712 -5.162,2.134 -1.436,1.437 -2.157,3.165 -2.157,5.181 z m 1.507,-14.549 h 11.703 V 3.603 h -11.703 z"
       inkscape:connector-curvature="0"
       style="marker-start:none;marker-end:none;fill:#000000" /><path
       id="path3778"
       d="m 397.499,56.423 h 11.704 V 42.928 h 5.631 V 32.177 h -5.631 V 3.603 h -11.704 v 28.574 h -4.474 v 10.751 h 4.474 z"
       inkscape:connector-curvature="0"
       style="marker-start:none;marker-end:none;fill:#000000" /><path
       id="path3780"
       d="m 420.4,57.477 c 0,1.979 0.72,3.681 2.155,5.102 1.438,1.436 3.159,2.156 5.162,2.156 2.018,0 3.738,-0.72 5.161,-2.156 1.438,-1.421 2.156,-3.123 2.156,-5.102 0,-2.016 -0.718,-3.744 -2.156,-5.181 -1.423,-1.422 -3.143,-2.134 -5.161,-2.134 -2.003,0 -3.724,0.712 -5.162,2.134 -1.435,1.437 -2.155,3.165 -2.155,5.181 z m 1.506,-14.549 H 433.61 V 3.603 h -11.704 z"
       inkscape:connector-curvature="0"
       style="marker-start:none;marker-end:none;fill:#000000" /><path
       id="path3782"
       d="m 444.177,23.172 c 0,6.072 1.931,11.022 5.794,14.856 3.877,3.848 8.849,5.771 14.919,5.771 5.634,0 10.361,-1.953 14.185,-5.87 3.834,-3.916 5.751,-8.775 5.751,-14.574 0,-5.904 -1.917,-10.819 -5.751,-14.734 -3.824,-3.9 -8.612,-5.851 -14.368,-5.851 -6.491,0 -11.539,2.067 -15.144,6.197 -3.589,4.131 -5.386,8.866 -5.386,14.205 z m 29.125,0 c 0,2.656 -0.874,4.973 -2.62,6.95 -1.735,1.98 -3.762,2.97 -6.08,2.97 -2.397,0 -4.469,-0.93 -6.215,-2.785 -1.735,-1.856 -2.603,-4.076 -2.603,-6.667 0,-2.844 0.859,-5.256 2.581,-7.235 1.723,-1.978 3.801,-2.967 6.237,-2.967 2.318,0 4.345,0.968 6.08,2.907 1.746,1.937 2.62,4.212 2.62,6.827 z"
       inkscape:connector-curvature="0"
       style="marker-start:none;marker-end:none;fill:#000000" /><path
       id="path3784"
       d="m 507.082,42.928 v -4.654 c 3.994,3.739 8.19,5.606 12.58,5.606 3.752,0 6.853,-1.537 9.309,-4.611 2.45,-3.075 3.675,-7.005 3.675,-11.787 V 3.603 h -11.889 v 21.988 c 0,2.265 -0.617,4.167 -1.848,5.71 -1.235,1.559 -2.737,2.337 -4.511,2.337 -2.129,0 -3.883,-0.98 -5.265,-2.944 -1.368,-1.967 -2.051,-4.498 -2.051,-7.602 V 3.603 h -11.706 v 39.325 z"
       inkscape:connector-curvature="0"
       style="marker-start:none;marker-end:none;fill:#000000" /></g></g></svg>