<?xml version="1.0" encoding="UTF-8" standalone="no"?>
<svg
   xmlns:dc="http://purl.org/dc/elements/1.1/"
   xmlns:cc="http://creativecommons.org/ns#"
   xmlns:rdf="http://www.w3.org/1999/02/22-rdf-syntax-ns#"
   xmlns:svg="http://www.w3.org/2000/svg"
   xmlns="http://www.w3.org/2000/svg"
   xmlns:sodipodi="http://sodipodi.sourceforge.net/DTD/sodipodi-0.dtd"
   xmlns:inkscape="http://www.inkscape.org/namespaces/inkscape"
   version="1.1"
   width="24"
   height="24"
   viewBox="0 0 24.00 24.00"
   enable-background="new 0 0 24.00 24.00"
   xml:space="preserve"
   id="svg4"
   sodipodi:docname="partition.svg"
   inkscape:version="0.92.3 (2405546, 2018-03-11)"><metadata
   id="metadata10"><rdf:RDF><cc:Work
       rdf:about=""><dc:format>image/svg+xml</dc:format><dc:type
         rdf:resource="http://purl.org/dc/dcmitype/StillImage" /></cc:Work></rdf:RDF></metadata><defs
   id="defs8" /><sodipodi:namedview
   pagecolor="#ffffff"
   bordercolor="#666666"
   borderopacity="1"
   objecttolerance="10"
   gridtolerance="10"
   guidetolerance="10"
   inkscape:pageopacity="0"
   inkscape:pageshadow="2"
   inkscape:window-width="1920"
   inkscape:window-height="1153"
   id="namedview6"
   showgrid="false"
   inkscape:zoom="27.812867"
   inkscape:cx="20.052677"
   inkscape:cy="15.885069"
   inkscape:window-x="1920"
   inkscape:window-y="21"
   inkscape:window-maximized="1"
   inkscape:current-layer="svg4" />
	
<g
   transform="matrix(0.06130352,0,0,0.06130352,3.930845,3.6362161)"
   id="g4609"><path
     inkscape:connector-curvature="0"
     style="fill:#010002"
     d="m 108.808,260.727 c 32.651,0 61.907,-14.566 81.629,-37.551 7.821,-9.116 3.688,-22.153 -7.071,-27.494 L 102.074,155.308 83.511,71.148 C 80.922,59.416 69.315,52.432 58.693,58.04 24.557,76.06 1.283,111.908 1.283,153.202 c 0,59.384 48.142,107.525 107.525,107.525 z"
     id="path4603" /><path
     inkscape:connector-curvature="0"
     style="fill:#010002"
     d="m 248.02441,150.41332 c 0,-42.86 -17.138,-81.722003 -44.938,-110.114003 -8.403,-8.583 -20.962,-5.929 -26.782,4.58 l -52.525,94.846003 96.973,50.175 c 10.671,5.526 22.545,0.756 24.704,-11.063 1.687,-9.213 2.568,-18.716 2.568,-28.424 z"
     id="path4605" /><path
     inkscape:connector-curvature="0"
     style="fill:#010002"
     d="m 147.07909,18.168594 c -11.253,-3.748 -23.48,-6.331 -35.278,-6.739 -12.009004,-0.419 -19.727004,11.661 -17.449004,23.459 l 19.504004,100.992996 43.752,-89.782996 c 5.267,-10.803 0.872,-24.129 -10.529,-27.93 z"
     id="path4607" /></g><g
   transform="translate(-119.97213,-118.69612)"
   id="g4611" /><g
   transform="translate(-119.97213,-118.69612)"
   id="g4613" /><g
   transform="translate(-119.97213,-118.69612)"
   id="g4615" /><g
   transform="translate(-119.97213,-118.69612)"
   id="g4617" /><g
   transform="translate(-119.97213,-118.69612)"
   id="g4619" /><g
   transform="translate(-119.97213,-118.69612)"
   id="g4621" /><g
   transform="translate(-119.97213,-118.69612)"
   id="g4623" /><g
   transform="translate(-119.97213,-118.69612)"
   id="g4625" /><g
   transform="translate(-119.97213,-118.69612)"
   id="g4627" /><g
   transform="translate(-119.97213,-118.69612)"
   id="g4629" /><g
   transform="translate(-119.97213,-118.69612)"
   id="g4631" /><g
   transform="translate(-119.97213,-118.69612)"
   id="g4633" /><g
   transform="translate(-119.97213,-118.69612)"
   id="g4635" /><g
   transform="translate(-119.97213,-118.69612)"
   id="g4637" /><g
   transform="translate(-119.97213,-118.69612)"
   id="g4639" /></svg>